<?xml version="1.0" encoding="UTF-8" standalone="no"?>
<!-- Created with Inkscape (http://www.inkscape.org/) -->

<svg
   version="1.1"
   id="svg1"
   width="650.27936"
   height="97.363327"
   viewBox="0 0 650.27936 97.363326"
   xmlns="http://www.w3.org/2000/svg"
   xmlns:svg="http://www.w3.org/2000/svg">
  <defs
     id="defs1" />
  <g
     id="g1">
    <path
       style="fill:#ffffff;fill-opacity:1"
       d="M 100.71479,97.25333 C 100.53461,96.78719 64.343495,0.127492 64.328868,0.073336 c -0.01798,-0.06658 0.774343,-0.06996 16.235758,-0.06912 l 16.254664,8.82e-4 18.06,48.644212 c 9.933,26.75431 18.066,48.65992 18.07333,48.67912 0.008,0.0198 -6.93768,0.0349 -16.09099,0.0349 h -16.10432 z m -63.791625,-0.1 C 36.87866,97.03603 0.098251,0.25816 0.0425,0.111668 L 0,0 16.709644,0.02762 c 9.190305,0.01519 16.71931,0.0423 16.731124,0.06024 0.01181,0.01794 4.808318,13.181867 10.6589,29.253169 6.673959,18.333081 10.649047,29.199781 10.668622,29.164801 0.02251,-0.0402 8.867585,-23.211476 9.519652,-24.938426 0.06313,-0.167185 0.08956,-0.20159 0.117077,-0.152411 0.113592,0.202977 14.35516,38.260617 14.339679,38.319817 -0.01035,0.0396 -2.291905,5.7952 -5.070118,12.79025 L 68.623286,97.24333 H 52.790298 36.95731 Z M 153.6623,95.9605 c -5.35066,-0.38271 -10.15517,-3.2666 -12.98998,-7.79717 -2.42742,-3.87946 -3.15544,-8.57485 -2.01675,-13.007 0.73876,-2.87547 2.25103,-5.53422 4.3396,-7.62951 2.54466,-2.55284 5.97008,-4.26495 9.48412,-4.74039 1.21203,-0.16399 2.82067,-0.19782 3.95281,-0.0831 5.42083,0.5491 10.148,3.59552 12.84822,8.28004 0.57784,1.00249 1.17491,2.37268 1.49899,3.44 0.492,1.62036 0.71159,3.12629 0.71159,4.88 0,1.45607 -0.14292,2.66947 -0.47134,4.00164 -1.22434,4.9663 -4.62212,9.06187 -9.28808,11.19557 -2.49309,1.14006 -5.34005,1.65516 -8.06918,1.45996 z m 470.42398,-1.27998 c -2.82596,-0.24777 -4.93722,-2.19561 -5.45501,-5.03276 -0.10349,-0.56706 -0.12516,-1.97754 -0.0385,-2.50443 0.13356,-0.81186 0.33293,-1.41169 0.71259,-2.14393 0.74465,-1.43621 2.13747,-2.53062 3.73392,-2.93393 0.60077,-0.15177 0.97207,-0.1946 1.68,-0.19377 1.07876,10e-4 1.7899,0.15941 2.66,0.59156 0.57158,0.28388 1.0522,0.62091 1.5224,1.06755 0.31225,0.29661 0.85574,0.93978 0.85559,1.01252 -8e-5,0.0429 -1.95695,1.50772 -2.00918,1.504 -0.0171,-0.001 -0.14004,-0.14668 -0.27308,-0.32325 -0.61573,-0.81712 -1.34066,-1.25454 -2.25048,-1.35792 -0.65787,-0.0748 -1.32575,0.0443 -1.94525,0.34685 -0.32897,0.16064 -0.43409,0.23959 -0.78278,0.58794 -0.36737,0.36702 -0.42262,0.44281 -0.62862,0.86238 -0.37074,0.75507 -0.49474,1.39751 -0.45551,2.36 0.0471,1.15547 0.35346,1.98383 0.97898,2.64692 0.70771,0.75021 1.76371,1.12015 2.83303,0.99247 1.03729,-0.12385 1.80096,-0.58066 2.42136,-1.44839 l 0.16373,-0.229 0.3249,0.25009 c 0.1787,0.13755 0.62641,0.48185 0.99491,0.76511 0.3685,0.28326 0.67,0.52841 0.67,0.54477 0,0.055 -0.44667,0.61563 -0.6945,0.87169 -0.49556,0.512 -1.29286,1.0604 -1.92325,1.32283 -0.8944,0.37234 -2.03029,0.53407 -3.09527,0.4407 z m -165.4641,-0.0394 c -1.9562,-0.2039 -3.57094,-1.35917 -4.41792,-3.16085 -0.3788,-0.80577 -0.57762,-1.6013 -0.64698,-2.58874 -0.13009,-1.85189 0.33071,-3.498 1.33959,-4.78538 0.94555,-1.20657 2.35567,-2.00104 3.91794,-2.20739 0.577,-0.0762 1.61505,-0.0571 2.14502,0.0396 1.27949,0.23334 2.39707,0.84371 3.32702,1.81708 0.35506,0.37163 0.7596,0.8969 0.7205,0.9355 -0.0498,0.0491 -2.09539,1.35242 -2.12217,1.35206 -0.0142,-1.9e-4 -0.0966,-0.11016 -0.18312,-0.24437 -0.22444,-0.34832 -0.70414,-0.84346 -1.02171,-1.05458 -0.88613,-0.58909 -2.23248,-0.657 -3.25618,-0.16422 -1.31902,0.63493 -2.10078,2.16754 -2.01154,3.94352 0.0947,1.88381 1.00166,3.1921 2.52667,3.6445 0.3594,0.10662 1.21383,0.14683 1.64431,0.0774 0.37265,-0.0601 0.77707,-0.1954 1.10442,-0.36944 0.29851,-0.1587 0.71653,-0.53893 0.85812,-0.78054 0.14078,-0.24022 0.25315,-0.61995 0.25315,-0.85547 v -0.19647 h -1.26 -1.26 v -1.14 -1.14 h 2.52 2.52 v 3.36 3.36 h -0.99566 -0.99566 l -0.0682,-0.17 c -0.0758,-0.18885 -0.22043,-0.88899 -0.22043,-1.06728 0,-0.1107 -0.009,-0.10565 -0.27,0.15416 -0.59273,0.58966 -1.41955,1.00753 -2.34092,1.18309 -0.40836,0.0778 -1.33093,0.10733 -1.8062,0.0578 z m 109.14718,0.002 c -1.3703,-0.14438 -2.51601,-0.69387 -3.42809,-1.64412 -0.93652,-0.97573 -1.50578,-2.28505 -1.66559,-3.83091 -0.0593,-0.57387 -0.0265,-1.69659 0.0646,-2.20503 0.23879,-1.33395 0.82504,-2.48392 1.72214,-3.37809 0.82473,-0.82203 1.85253,-1.36909 3.05691,-1.62708 0.36122,-0.0774 0.54315,-0.0902 1.3,-0.0918 0.75492,-0.002 0.94267,0.0108 1.32094,0.0871 1.22801,0.2474 2.2346,0.79027 3.13516,1.69084 0.32003,0.32003 0.84556,0.9596 0.84206,1.02479 -0.002,0.032 -2.08122,1.37425 -2.12912,1.37425 -0.0121,0 -0.0981,-0.1125 -0.1912,-0.25 -0.40616,-0.60019 -0.85889,-1.01072 -1.38508,-1.25598 -0.45495,-0.21206 -0.75352,-0.26929 -1.39276,-0.26695 -0.67398,0.002 -1.01014,0.0788 -1.58,0.3589 -0.33017,0.16227 -0.43246,0.23969 -0.78,0.59039 -0.60198,0.60746 -0.92829,1.26469 -1.08083,2.17697 -0.10198,0.60987 -0.0672,1.63937 0.0734,2.1749 0.38022,1.448 1.3189,2.38093 2.67133,2.65496 0.45297,0.0918 1.33209,0.0612 1.7525,-0.0609 1.09054,-0.31683 1.72459,-0.97295 1.82861,-1.89229 l 0.026,-0.23 h -1.28551 -1.2855 v -1.14 -1.14 h 2.52 2.52 v 3.36 3.36 h -0.97898 -0.97897 l -0.056,-0.11 c -0.07,-0.13762 -0.17756,-0.56674 -0.20811,-0.83031 -0.0497,-0.42864 -0.0283,-0.42182 -0.34996,-0.11164 -0.61372,0.59178 -1.31082,0.94504 -2.23761,1.13391 -0.46705,0.0952 -1.31358,0.1315 -1.82035,0.0781 z M 423.43929,88.28333 v -6.2 l 2.47,7.8e-4 c 1.93496,6.1e-4 2.56508,0.0134 2.90892,0.0592 2.64944,0.35256 4.62141,2.00283 5.19732,4.34943 0.15063,0.61375 0.19676,1.14407 0.17294,1.9879 -0.0313,1.10766 -0.17911,1.77928 -0.57229,2.59987 -0.40606,0.84747 -0.92366,1.50255 -1.59485,2.01846 -0.42411,0.32599 -0.57145,0.41819 -1.06067,0.66368 -0.74087,0.37179 -1.55009,0.59299 -2.48137,0.67829 -0.25808,0.0236 -1.46516,0.0422 -2.75,0.0423 l -2.29,1.3e-4 z m 5.15776,3.69892 c 1.14459,-0.25159 2.00854,-0.96142 2.42107,-1.98916 0.23971,-0.5972 0.28152,-0.86902 0.27832,-1.80976 -0.002,-0.72875 -0.0142,-0.88101 -0.0883,-1.14968 -0.19857,-0.71982 -0.4206,-1.12056 -0.86961,-1.56957 -0.44983,-0.44984 -0.85489,-0.67396 -1.56957,-0.86846 -0.27084,-0.0737 -0.45143,-0.0866 -1.43969,-0.10239 l -1.13,-0.0181 v 3.77744 c 0,2.07758 0.0135,3.79157 0.03,3.80885 0.0559,0.0585 2.04365,-0.008 2.36776,-0.0792 z m 13.88224,-3.69892 v -6.2 h 1.38 1.38 v 6.2 6.2 h -1.38 -1.38 z m 31.52001,0 v -6.2 h 1.38 1.38 v 6.2 6.2 h -1.38 -1.38 z m 13.84,1.2 v -5 h -1.68 -1.68 v -1.2 -1.2 h 4.74 4.74 v 1.2 1.2 h -1.66 -1.66 v 5 5 h -1.4 -1.4 z m 11.81171,4.16705 c 0.15856,-0.45812 1.12529,-3.24774 2.14829,-6.19915 l 1.86,-5.3662 1.79,-8.5e-4 c 0.9845,-4.7e-4 1.79,0.005 1.79,0.0115 0,0.007 0.954,2.78308 2.12,6.16954 1.166,3.38646 2.12,6.1709 2.12,6.18765 0,0.0168 -0.6615,0.0302 -1.47,0.0299 l -1.47,-5.3e-4 -0.40291,-1.28947 -0.40291,-1.28947 -2.28009,-0.0103 -2.2801,-0.0103 -0.21016,0.65033 c -0.11558,0.35768 -0.30323,0.94231 -0.41699,1.29917 l -0.20684,0.64886 -1.48829,0.001 -1.48828,10e-4 z m 7.00486,-5.23705 c -0.92015,-2.82063 -1.15083,-3.47 -1.23268,-3.47 -0.0755,0 -0.3157,0.6982 -1.40007,4.07 l -0.21547,0.67 h 1.63126 1.63126 z m 12.34343,-0.13 v -6.2 h 1.37984 1.37984 l 0.0102,4.99 0.0102,4.99 2.43,0.0103 2.43,0.0103 v 1.19969 1.19969 h -3.82 -3.82 z m 25.09459,6.10731 c 0.0128,-0.051 0.97552,-2.83648 2.13939,-6.19 l 2.11613,-6.09731 h 1.78917 1.78916 l 1.95487,5.68 c 1.07518,3.124 2.03544,5.90972 2.13393,6.19049 l 0.17906,0.51048 -1.48366,-0.0105 -1.48367,-0.0105 -0.40448,-1.28986 -0.40449,-1.28986 -2.28,9e-5 -2.28,9e-5 -0.41717,1.29977 -0.41717,1.29977 h -1.47717 -1.47717 z m 7.65549,-4.75731 c -0.0102,-0.0275 -0.3636,-1.0985 -0.78542,-2.38 -0.65404,-1.98702 -0.77805,-2.33 -0.84249,-2.33 -0.0606,0 -0.10342,0.0849 -0.21669,0.43 -0.66187,2.01669 -1.38548,4.25724 -1.38548,4.28996 0,0.0261 0.56685,0.04 1.62428,0.04 1.28261,0 1.62039,-0.0105 1.6058,-0.05 z m 31.32992,-1.35 v -6.2 h 3.92 3.92 v 1.2 1.2 h -2.54055 -2.54055 l 0.0105,1.31 0.0106,1.31 2.35,0.0103 2.35,0.0103 v 1.13968 1.13968 h -2.36054 -2.36054 l 0.0105,1.33 0.0105,1.33 2.63,0.0103 2.63,0.0103 v 1.19971 1.19971 h -4.02 -4.02 z m 16.56,0 v -6.2 h 1.55603 1.55603 l 2.35397,4.09956 c 1.29468,2.25476 2.37647,4.09976 2.40397,4.1 0.0397,3.5e-4 0.05,-0.84599 0.05,-4.09956 v -4.1 h 1.34 1.34 v 6.20052 6.20052 l -1.3819,-0.0105 -1.3819,-0.0105 -2.5118,-4.38 c -1.53875,-2.68324 -2.53748,-4.38501 -2.5781,-4.39293 -0.0614,-0.012 -0.0663,0.31168 -0.0663,4.39 v 4.40289 h -1.34 -1.34 z m 40.96,3.79815 v -2.40185 l -2.12426,-3.66815 c -1.16835,-2.01748 -2.15994,-3.72685 -2.20355,-3.7986 l -0.0793,-0.13046 1.60782,0.0105 1.60783,0.0104 1.26572,2.46 c 0.71097,1.38182 1.28898,2.46 1.3188,2.46 0.0299,0 0.60285,-1.07725 1.31361,-2.47 l 1.26051,-2.47 h 1.6002 1.6002 l -0.0988,0.17 c -1.0688,1.83838 -4.1942,7.24391 -4.24274,7.33802 -0.0592,0.11476 -0.066,0.37447 -0.066,2.51 v 2.38199 h -1.38 -1.38 z M 583.8261,72.31851 c -2.40548,-0.23159 -4.53537,-1.94696 -5.25863,-4.23518 -0.23434,-0.7414 -0.26794,-0.98206 -0.26806,-1.92 -10e-5,-0.75448 0.0113,-0.91095 0.0928,-1.27522 0.54909,-2.45237 2.38471,-4.26727 4.84704,-4.79228 0.52554,-0.11206 1.95587,-0.10238 2.48731,0.0168 1.22967,0.27584 2.17989,0.79791 3.07567,1.68984 0.72883,0.72569 1.19443,1.46447 1.49682,2.37505 0.88669,2.67001 -0.0863,5.55569 -2.39792,7.11202 -0.89455,0.60226 -1.81391,0.92696 -2.92188,1.03198 -0.49088,0.0465 -0.64248,0.0461 -1.1532,-0.003 z m 35.7932,-0.0756 c -4.0845,-0.16002 -7.68713,-1.15822 -10.84,-3.0035 -3.10536,-1.81747 -5.60878,-4.29627 -7.46959,-7.39612 -1.90469,-3.17294 -3.05346,-6.68463 -3.52968,-10.78988 -0.25552,-2.20262 -0.28606,-5.08106 -0.0778,-7.33012 0.31765,-3.43008 1.1309,-6.459255 2.47927,-9.23463 1.82161,-3.74947 4.39396,-6.712825 7.72617,-8.900576 3.07887,-2.021416 6.55802,-3.144002 10.61161,-3.423942 0.88717,-0.06127 3.03636,-0.05031 3.90685,0.01991 3.8456,0.310247 7.05582,1.46578 9.80154,3.528109 1.28256,0.963332 2.6785,2.385859 3.71217,3.782847 l 0.31944,0.431716 0.0101,-13.001716 0.0101,-13.001717 h 6.99994 6.99994 V 37.823335 71.72333 h -6.99979 -6.99979 l -0.0102,-3.59849 -0.0102,-3.59848 -0.34592,0.46848 c -2.29661,3.11041 -5.1863,5.20675 -8.74507,6.34417 -2.19866,0.70272 -4.78388,1.01228 -7.54901,0.90394 z m 6.28,-11.07242 c 1.44526,-0.22669 2.74025,-0.65705 3.87349,-1.28724 1.12044,-0.62308 2.13727,-1.42675 2.96505,-2.34348 1.66501,-1.84394 2.78305,-4.19757 3.27601,-6.89648 0.20963,-1.14773 0.24519,-1.62428 0.24472,-3.28 -4.6e-4,-1.64807 -0.0302,-2.05087 -0.24182,-3.28 -0.57131,-3.31766 -2.12415,-6.154595 -4.41674,-8.069065 -2.28024,-1.904142 -5.08819,-2.805373 -8.24469,-2.646186 -2.98425,0.150501 -5.50632,1.220155 -7.53114,3.194096 -1.05935,1.03273 -1.85738,2.135445 -2.50347,3.459265 -1.09295,2.23945 -1.65451,4.72396 -1.65942,7.34189 -0.002,1.07226 0.031,1.53446 0.183,2.56 0.39067,2.63631 1.42667,5.13957 2.88426,6.96917 1.98137,2.48709 4.661,3.97166 7.81169,4.32786 0.77469,0.0876 2.66146,0.0596 3.35906,-0.0498 z M 329.95929,72.13682 c -4.4536,-0.23718 -7.96716,-1.09526 -11.28484,-2.75597 -0.93615,-0.46861 -1.61145,-0.86248 -2.53516,-1.47865 -1.3171,-0.87859 -2.21799,-1.61565 -3.32207,-2.71795 -1.76592,-1.76308 -3.09016,-3.62571 -4.23794,-5.96092 -0.96449,-1.96233 -1.57863,-3.79142 -2.0196,-6.01501 -0.84185,-4.24509 -0.72087,-9.19309 0.32532,-13.30498 1.40273,-5.513274 4.67063,-10.222292 9.224,-13.291751 4.5045,-3.036516 9.85987,-4.504928 16.03029,-4.395419 2.62134,0.04652 4.7255,0.303916 6.92,0.846498 3.43954,0.85041 6.31447,2.324396 8.8,4.511788 4.36821,3.844241 6.92943,9.533359 7.55829,16.788874 0.17397,2.00724 0.18965,4.79861 0.0379,6.75 l -0.0257,0.33 h -17.61527 c -16.35193,0 -17.61527,0.005 -17.61527,0.0661 0,0.1105 0.27214,1.06111 0.46485,1.62374 0.2431,0.70979 0.40981,1.10576 0.73687,1.75018 2.3172,4.56582 6.79612,7.0322 12.27465,6.75921 4.32084,-0.21531 7.83699,-1.75116 11.23296,-4.90654 l 0.39534,-0.36733 3.68767,3.64074 c 2.02821,2.0024 3.68766,3.65917 3.68766,3.6817 0,0.0734 -1.80649,1.84787 -2.32,2.27891 -4.47103,3.75301 -9.98648,5.78754 -16.68,6.15288 -0.65576,0.0358 -3.13509,0.0451 -3.72,0.0139 z m 12.32,-29.04549 c 0,-0.27061 -0.0904,-1.23467 -0.1639,-1.74799 -0.52436,-3.661765 -2.40123,-6.397961 -5.43085,-7.917372 -1.1775,-0.59054 -2.27508,-0.907299 -3.84525,-1.109726 -0.59563,-0.07679 -2.3514,-0.06406 -2.98,0.02161 -2.5847,0.352257 -4.60455,1.37306 -6.4063,3.23766 -1.82013,1.883621 -3.00584,4.399098 -3.54363,7.517818 l -0.019,0.11 h 11.19448 11.19445 z m 48.7,29.02967 c -3.83876,-0.28778 -6.99166,-1.34349 -9.7124,-3.25207 -1.4168,-0.99388 -2.88095,-2.44153 -4.0056,-3.96048 l -0.322,-0.43488 -0.0102,3.62488 -0.0102,3.62488 h -7.03979 -7.03979 V 37.823335 3.923336 h 7.03994 7.03994 l 0.0101,12.979432 0.0101,12.979432 0.29586,-0.404018 c 1.14847,-1.568336 2.48791,-2.913281 3.95225,-3.968488 1.35246,-0.974584 3.19521,-1.885658 4.85385,-2.399802 1.89711,-0.588064 3.65716,-0.85222 5.95804,-0.894211 5.62417,-0.102642 10.27687,1.299158 14.3,4.30841 1.53584,1.148784 3.10629,2.732474 4.30199,4.338261 2.98214,4.004919 4.60348,8.820698 4.92142,14.617808 0.0538,0.98122 0.0281,3.80354 -0.0421,4.62317 -0.34745,4.05578 -1.19411,7.23165 -2.74055,10.28 -2.10285,4.14515 -5.20082,7.3134 -9.14987,9.35746 -2.43809,1.26198 -5.15677,2.02429 -8.29088,2.32476 -0.79609,0.0763 -3.56719,0.11189 -4.32,0.0555 z m -0.0248,-11.29579 c 2.06556,-0.29193 3.82512,-0.99667 5.33569,-2.13704 3.23015,-2.43852 5.02914,-6.60623 5.02914,-11.65097 0,-4.29392 -1.38647,-8.05291 -3.9,-10.573685 -1.56319,-1.567705 -3.45682,-2.594919 -5.60468,-3.040317 -0.90613,-0.187903 -1.47243,-0.238487 -2.65532,-0.237184 -1.14271,0.0013 -1.66229,0.04694 -2.52,0.221571 -2.13327,0.434331 -4.08834,1.472876 -5.67513,3.01466 -2.13317,2.07268 -3.46411,4.869235 -3.88403,8.161085 -0.28379,2.22477 -0.16512,4.70151 0.32127,6.70489 1.2557,5.17214 4.84002,8.69436 9.64102,9.47399 0.27671,0.0449 0.66371,0.0983 0.86,0.1185 0.54715,0.0564 2.51311,0.0207 3.05204,-0.0555 z m 116.04484,11.31411 c -1.11922,-0.0723 -1.59864,-0.11072 -2.20181,-0.17636 -5.59149,-0.6085 -10.37442,-2.55649 -14.29819,-5.82337 -0.62106,-0.51708 -1.93005,-1.81494 -2.47733,-2.45626 -1.21466,-1.42336 -2.19591,-2.91634 -3.07589,-4.68 -1.41783,-2.84162 -2.14906,-5.55128 -2.5097,-9.3 -0.0678,-0.7052 -0.0938,-3.5503 -0.0404,-4.42908 0.34712,-5.71433 2.1175,-10.38767 5.45864,-14.409381 0.52097,-0.627086 2.02843,-2.132937 2.66372,-2.660884 3.77192,-3.13457 8.42299,-5.072255 13.77485,-5.738748 1.622,-0.201994 2.30372,-0.239221 4.40614,-0.240608 2.35857,-0.0016 3.50186,0.07537 5.38,0.361999 6.37635,0.973113 11.83735,3.909809 15.53989,8.356708 3.81198,4.578345 5.66344,10.477364 5.41981,17.268264 -0.17322,4.82811 -1.29041,8.82363 -3.48316,12.45711 -1.46857,2.4335 -3.49322,4.67425 -5.73432,6.34639 -1.45074,1.08243 -3.38899,2.19455 -5.05364,2.89967 -2.77306,1.17461 -5.62252,1.84606 -9.12858,2.15108 -0.69134,0.0601 -4.02842,0.11298 -4.64,0.0735 z m 3.02305,-10.89837 c 2.76769,-0.26846 5.08781,-1.34841 6.99761,-3.25721 1.62969,-1.62884 2.83156,-3.80315 3.43838,-6.22041 0.84851,-3.38004 0.67295,-7.30102 -0.46567,-10.39999 -0.24668,-0.6714 -0.85744,-1.91648 -1.22635,-2.5 -0.65915,-1.042615 -1.53911,-2.061495 -2.42702,-2.810185 -1.36139,-1.14792 -3.09395,-1.981736 -4.88,-2.348563 -0.99775,-0.204919 -1.39328,-0.239611 -2.72,-0.238571 -1.35109,0.0011 -1.74998,0.0379 -2.78,0.256763 -4.11019,0.873343 -7.22396,3.753631 -8.68227,8.031236 -1.15016,3.37371 -1.1501,7.76728 1.5e-4,11.13864 1.30369,3.82107 3.94223,6.57108 7.46212,7.77738 0.77074,0.26414 1.95873,0.50923 2.84,0.58592 0.38754,0.0337 2.04564,0.0235 2.44305,-0.015 z M 542.3593,47.28333 V 22.763336 h 7.03982 7.03982 l 0.0102,4.308504 0.0102,4.308503 0.23689,-0.398503 c 0.82181,-1.382492 1.67035,-2.471721 2.82039,-3.620391 0.92151,-0.920427 1.76161,-1.592978 2.81086,-2.250289 3.20544,-2.00806 7.16769,-2.993847 11.63186,-2.893945 0.605,0.01354 1.378,0.05228 1.71778,0.08609 3.1421,0.312645 5.75335,1.190721 8.12222,2.731229 3.06033,1.990179 5.26038,4.872636 6.51191,8.531753 0.52413,1.532401 0.82917,3.03596 1.05438,5.197053 0.0351,0.33637 0.0518,2.65043 0.0623,8.60999 l 0.0143,8.15 h -7.03999 -7.03998 l -0.0137,-6.01 c -0.0148,-6.50649 -0.004,-6.1732 -0.23148,-7.35 -0.58099,-3.01034 -2.26284,-5.323633 -4.75007,-6.533457 -2.93269,-1.4265 -7.01887,-1.292804 -9.98767,0.326784 -0.82374,0.44938 -1.53073,0.98894 -2.26,1.72477 -1.79497,1.811103 -2.97216,4.208953 -3.43751,7.001903 -0.2314,1.38889 -0.2161,0.43782 -0.23092,14.35 l -0.0136,12.77 h -7.03899 -7.03898 z M 219.39651,39.75334 208.61819,7.783336 l 7.75813,-0.0101 c 4.77084,-0.0062 7.76676,0.0043 7.78055,0.02723 0.0123,0.02053 3.13558,11.062918 6.94055,24.538638 3.80497,13.475716 6.92798,24.491836 6.94,24.480256 0.012,-0.0116 3.11829,-11.04943 6.9028,-24.528541 L 251.82115,7.78334 h 7.09332 7.09332 l 6.96575,24.529339 c 3.83117,13.491141 6.97475,24.529581 6.98575,24.529871 0.011,3e-4 3.09992,-11.0379 6.86427,-24.529336 l 6.84427,-24.529874 7.44573,-0.0101 c 4.09515,-0.0056 7.44563,0.0034 7.44551,0.02 -1.2e-4,0.01656 -4.86672,14.403105 -10.81467,31.9701 l -10.81444,31.94 -7.45533,0.01 -7.45534,0.01 -6.67477,-23.22972 c -3.67112,-12.776348 -6.68612,-23.241892 -6.7,-23.256764 -0.0139,-0.01487 -3.09288,10.438628 -6.84223,23.229994 l -6.81701,23.25648 h -7.40522 -7.40523 z m 203.92278,-0.011 V 7.761324 l 15.91,0.01432 c 11.59913,0.01044 16.06174,0.02688 16.47001,0.06068 1.87703,0.155374 2.77805,0.260868 4.01825,0.47047 3.59085,0.606875 6.76378,1.771049 9.27343,3.402499 3.57262,2.32246 5.80822,5.654702 6.42323,9.574045 0.17324,1.103986 0.22541,3.029714 0.11162,4.12 -0.35872,3.437164 -1.70205,6.306188 -4.04539,8.64 -1.70891,1.701959 -4.0338,3.007459 -6.55756,3.682279 l -0.33642,0.09 0.59642,0.13287 c 5.04755,1.124553 8.85591,3.982723 10.99437,8.251263 1.44322,2.88079 2.00615,6.54952 1.5595,10.16363 -0.55861,4.5202 -3.01805,8.374 -7.05745,11.05863 -0.91303,0.6068 -1.38412,0.87767 -2.39285,1.37582 -3.17629,1.56858 -6.81974,2.482 -11.18715,2.80465 -1.47893,0.10925 -3.12129,0.12016 -18.15001,0.12052 l -15.63,3.3e-4 z m 30.28201,20.49942 c 2.92529,-0.22604 5.20814,-1.00968 6.84872,-2.35098 0.39457,-0.32259 1.00085,-0.96453 1.27973,-1.35501 1.25748,-1.76065 1.61621,-4.42908 0.88799,-6.60535 -0.84121,-2.51392 -3.2781,-4.34844 -6.67844,-5.02764 -1.66831,-0.33323 -2.05748,-0.34514 -10.82001,-0.33116 l -7.34,0.0117 -0.0101,7.85 -0.0101,7.85 h 7.65211 c 4.9224,0 7.84402,-0.0148 8.1901,-0.0416 z m -0.342,-26.678437 c 2.35515,-0.21382 4.14178,-0.939233 5.5086,-2.23662 1.33326,-1.26553 2.0314,-3.020353 2.0314,-5.106076 0,-1.892065 -0.58774,-3.468619 -1.73225,-4.646594 -1.29851,-1.33647 -2.99064,-2.078901 -5.32775,-2.337571 -0.38247,-0.04233 -2.05271,-0.05313 -8.22001,-0.05313 h -7.74 l -0.0101,7.21 -0.0101,7.21 7.53011,-3.3e-5 c 4.6927,-2.1e-5 7.6959,-0.01509 7.97011,-0.03998 z M 128.20783,45.73333 C 128.16173,45.60427 111.51351,0.999633 111.3073,0.452696 l -0.13974,-0.370639 14.48587,0.01169 c 15.83298,0.01278 14.61792,-0.0046 16.18586,0.231047 6.33627,0.952145 11.96593,4.54376 15.54677,9.918541 2.22586,3.340978 3.50647,7.049099 3.81202,11.037996 0.0531,0.693053 0.0531,2.590955 0,3.284008 -0.34157,4.459237 -1.91806,8.637279 -4.6055,12.205645 -0.61689,0.8191 -1.22439,1.50967 -2.07021,2.353286 -1.17043,1.1674 -2.039,1.88751 -3.32308,2.75511 -2.79091,1.88571 -5.81434,3.09256 -9.12,3.64037 -1.78503,0.29581 -2.50503,0.32241 -8.74609,0.32305 l -5.08608,5.3e-4 z"
       id="path1" />
  </g>
</svg>
